<?xml version="1.0" encoding="utf-8"?>
<!-- Generator: Adobe Illustrator 16.0.0, SVG Export Plug-In . SVG Version: 6.00 Build 0)  -->
<!DOCTYPE svg PUBLIC "-//W3C//DTD SVG 1.1//EN" "http://www.w3.org/Graphics/SVG/1.1/DTD/svg11.dtd">
<svg version="1.1" id="Layer_1" xmlns="http://www.w3.org/2000/svg" xmlns:xlink="http://www.w3.org/1999/xlink" x="0px" y="0px"
	 width="50px" height="110px" viewBox="0 0 50 110" enable-background="new 0 0 50 110" xml:space="preserve">
<g>
	<g>
		<path style="fill:rgba(255,255,255,0.5);" d="M25.115,73.628C11.266,73.628,0,62.363,0,48.513V25.115C0,11.266,11.266,0,25.115,0C38.965,0,50.23,11.266,50.23,25.115
			v23.398C50.23,62.363,38.965,73.628,25.115,73.628z M25.115,2.543c-12.446,0-22.572,10.126-22.572,22.572v23.398
			c0,12.446,10.126,22.572,22.572,22.572c12.446,0,22.572-10.126,22.572-22.572V25.115C47.688,12.669,37.562,2.543,25.115,2.543z"/>
	</g>
	<g>
		<circle style="fill:rgba(255,255,255,0.5);" cx="25.115" cy="18.867" r="3.73"/>
	</g>
	<g>
		<g>
			<g>
				<path style="fill:rgba(255,255,255,0.5);" d="M25.115,101.842c-0.283,0-0.566-0.095-0.8-0.283L12.34,91.871c-0.546-0.442-0.631-1.242-0.189-1.788
					c0.441-0.545,1.243-0.63,1.789-0.189l11.175,9.042l11.177-9.042c0.545-0.44,1.348-0.355,1.788,0.189
					c0.442,0.546,0.357,1.346-0.188,1.788l-11.977,9.688C25.682,101.748,25.398,101.842,25.115,101.842z"/>
			</g>
		</g>
		<g>
			<path style="fill:rgba(255,255,255,0.5);" d="M25.115,100.935c-0.703,0-1.271-0.569-1.271-1.272V48.73c0-0.703,0.568-1.271,1.271-1.271s1.271,0.569,1.271,1.271
				v50.932C26.387,100.366,25.818,100.935,25.115,100.935z"/>
		</g>
	</g>
	<g>
		<path style="fill:rgba(255,255,255,0.5);" d="M25.115,43.49c-0.344,0-0.662-0.14-0.903-0.381c-0.242-0.23-0.369-0.561-0.369-0.891c0-0.331,0.139-0.661,0.369-0.903
			c0.471-0.471,1.335-0.471,1.806,0c0.228,0.242,0.369,0.56,0.369,0.903c0,0.33-0.128,0.661-0.369,0.891
			C25.776,43.35,25.458,43.49,25.115,43.49z"/>
	</g>
	<g>
		<path style="fill:rgba(255,255,255,0.5);" d="M25.115,37.768c-0.344,0-0.662-0.127-0.903-0.369c-0.114-0.126-0.204-0.254-0.281-0.419
			c-0.063-0.153-0.088-0.318-0.088-0.483s0.025-0.33,0.102-0.483c0.063-0.153,0.153-0.293,0.267-0.42
			c0.126-0.114,0.254-0.204,0.42-0.267c0.229-0.102,0.483-0.126,0.724-0.077c0.089,0.014,0.166,0.039,0.242,0.077
			c0.076,0.025,0.153,0.063,0.216,0.114c0.076,0.039,0.14,0.102,0.204,0.153c0.115,0.127,0.204,0.267,0.267,0.42
			s0.102,0.318,0.102,0.483s-0.038,0.331-0.102,0.483c-0.063,0.165-0.152,0.293-0.267,0.419c-0.128,0.114-0.267,0.216-0.42,0.279
			C25.445,37.743,25.28,37.768,25.115,37.768z"/>
	</g>
	<g>
		<path style="fill:rgba(255,255,255,0.5);" d="M25.115,32.045c-0.344,0-0.662-0.127-0.903-0.369c-0.114-0.114-0.204-0.255-0.267-0.408
			c-0.063-0.165-0.102-0.318-0.102-0.496c0-0.165,0.038-0.33,0.102-0.483s0.153-0.293,0.267-0.407
			c0.126-0.126,0.267-0.216,0.42-0.279c0.229-0.102,0.483-0.127,0.724-0.077c0.089,0.014,0.166,0.039,0.242,0.077
			c0.076,0.024,0.153,0.063,0.216,0.114c0.076,0.051,0.14,0.102,0.204,0.165c0.115,0.114,0.204,0.254,0.267,0.407
			s0.102,0.318,0.102,0.483c0,0.178-0.038,0.331-0.102,0.496c-0.063,0.153-0.152,0.293-0.267,0.408
			C25.776,31.918,25.458,32.045,25.115,32.045z"/>
	</g>
</g>
</svg>
